<svg width="94" height="24" viewBox="0 0 94 24" fill="none" xmlns="http://www.w3.org/2000/svg">
<path d="M12.2656 9.01874V6.36249H9.96094V3.08124H7.61719V6.36249H4.64844V3.08124H2.30469V6.36249H0V9.01874H2.30469V11.9875H0V14.6437H2.30469V17.925H4.64844V14.6437H7.61719V17.925H9.96094V14.6437H12.2656V11.9875H9.96094V9.01874H12.2656ZM7.61719 11.9875H4.64844V9.01874H7.61719V11.9875Z" fill="url(#paint0_linear_3_6)"/>
<path d="M21.4844 6.01093C19.9219 6.01093 18.5547 6.67499 17.6562 7.72968V2.29999H14.8438V17.925H17.6562V11.2062C17.6562 9.52655 18.9844 8.35468 20.625 8.35468C22.0312 8.35468 22.8906 9.3703 22.8906 11.1672V17.925H25.7031V10.5031C25.7031 7.8078 23.9844 6.01093 21.4844 6.01093Z" fill="url(#paint1_linear_3_6)"/>
<path d="M30.8594 12.9641H39.5703C39.6875 12.5734 39.6875 12.3391 39.6875 12.0656C39.6875 8.39374 37.4219 6.01093 33.9453 6.01093C30.3906 6.01093 28.0469 8.47186 28.0469 12.0656C28.0469 15.5422 30.1172 18.1203 34.1406 18.1203C36.4844 18.1203 38.1641 17.2609 39.2188 16.05L37.4609 14.3703C36.7578 15.1906 35.6641 15.7766 34.1406 15.7766C32.3047 15.7766 31.1328 14.7219 30.8594 12.9641ZM33.9453 8.27655C35.4688 8.27655 36.5234 9.21405 36.8359 10.8937H30.8984C31.2109 9.25311 32.3047 8.27655 33.9453 8.27655Z" fill="url(#paint2_linear_3_6)"/>
<path d="M42.1875 17.925H45V2.29999H42.1875V17.925Z" fill="url(#paint3_linear_3_6)"/>
<path d="M54.9609 6.01093C53.3203 6.01093 51.9531 6.71405 51.0547 7.96405L50.8984 6.20624H48.3984V21.8312H51.2109V16.4406C52.1094 17.5344 53.3984 18.1203 54.9609 18.1203C57.9297 18.1203 60 15.6984 60 12.0656C60 8.39374 58.0078 6.01093 54.9609 6.01093ZM54.1016 15.7766C52.2266 15.7766 51.0938 14.3312 51.0938 12.0656C51.0938 9.79999 52.2266 8.35468 54.1016 8.35468C55.9766 8.35468 57.1484 9.79999 57.1484 12.0656C57.1484 14.3312 55.9766 15.7766 54.1016 15.7766Z" fill="url(#paint4_linear_3_6)"/>
<path d="M69.2188 18.1203C73.2422 18.1203 75.7031 15.7375 75.7031 11.9875V3.08124H72.6953V11.9094C72.6953 14.1359 71.4453 15.4641 69.2188 15.4641C67.0312 15.4641 65.7422 14.1359 65.7422 11.9094V3.08124H62.7344V11.9875C62.7344 15.7375 65.2344 18.1203 69.2188 18.1203Z" fill="url(#paint5_linear_3_6)"/>
<path d="M89.2578 17.925H92.4609L86.6016 3.08124H82.9297L77.0703 17.925H80.1953L81.3672 14.8H88.0859L89.2578 17.925ZM82.3438 12.1828L84.7266 5.73749L87.1094 12.1828H82.3438Z" fill="url(#paint6_linear_3_6)"/>
<defs>
<linearGradient id="paint0_linear_3_6" x1="46.1016" y1="-2.07501" x2="46.1016" y2="21.925" gradientUnits="userSpaceOnUse">
<stop offset="0.117708" stop-color="#52A5FC"/>
<stop offset="1" stop-color="#F7CE00"/>
</linearGradient>
<linearGradient id="paint1_linear_3_6" x1="46.1016" y1="-2.07501" x2="46.1016" y2="21.925" gradientUnits="userSpaceOnUse">
<stop offset="0.117708" stop-color="#52A5FC"/>
<stop offset="1" stop-color="#F7CE00"/>
</linearGradient>
<linearGradient id="paint2_linear_3_6" x1="46.1016" y1="-2.07501" x2="46.1016" y2="21.925" gradientUnits="userSpaceOnUse">
<stop offset="0.117708" stop-color="#52A5FC"/>
<stop offset="1" stop-color="#F7CE00"/>
</linearGradient>
<linearGradient id="paint3_linear_3_6" x1="46.1016" y1="-2.07501" x2="46.1016" y2="21.925" gradientUnits="userSpaceOnUse">
<stop offset="0.117708" stop-color="#52A5FC"/>
<stop offset="1" stop-color="#F7CE00"/>
</linearGradient>
<linearGradient id="paint4_linear_3_6" x1="46.1016" y1="-2.07501" x2="46.1016" y2="21.925" gradientUnits="userSpaceOnUse">
<stop offset="0.117708" stop-color="#52A5FC"/>
<stop offset="1" stop-color="#F7CE00"/>
</linearGradient>
<linearGradient id="paint5_linear_3_6" x1="46.1016" y1="-2.07501" x2="46.1016" y2="21.925" gradientUnits="userSpaceOnUse">
<stop offset="0.117708" stop-color="#52A5FC"/>
<stop offset="1" stop-color="#F7CE00"/>
</linearGradient>
<linearGradient id="paint6_linear_3_6" x1="46.1016" y1="-2.07501" x2="46.1016" y2="21.925" gradientUnits="userSpaceOnUse">
<stop offset="0.117708" stop-color="#52A5FC"/>
<stop offset="1" stop-color="#F7CE00"/>
</linearGradient>
</defs>
</svg>
