<svg width="24" height="24" viewBox="0 0 24 24" fill="none" xmlns="http://www.w3.org/2000/svg">
<path d="M24 12C24 18.6276 18.6274 24.0001 12.0001 24.0001C5.37257 24.0001 0 18.6276 0 12C0 5.37267 5.37257 0 12.0001 0C18.6274 0 24 5.37267 24 12Z" fill="#59CAE9"/>
<path d="M17.456 8.66878C16.0113 7.26124 12.695 7.32288 10.6137 9.4043C8.53187 11.4862 8.48351 14.8148 9.87797 16.2469L9.87652 16.2484L11.0065 17.3784L11.0663 17.3186C9.77514 15.3735 10.0941 12.6022 11.9528 10.7437C13.811 8.88549 16.5823 8.56615 18.5275 9.85729L18.5874 9.7973L17.4576 8.66723L17.456 8.66878Z" fill="#2B2B3F"/>
<path d="M12.0001 0C5.37257 0 0 5.37267 0 12C0 18.6276 5.37257 24.0001 12.0001 24.0001C18.6274 24.0001 24 18.6275 24 12C24 5.37267 18.6274 0 12.0001 0ZM20.1997 11.7978C20.1997 11.7978 20.1804 11.857 20.1396 11.9651C20.1022 12.0689 20.0609 12.1708 20.0168 12.2712C19.4224 13.6822 17.2715 17.9133 12.0572 20.3472L12.0571 20.369C12.0495 20.3654 12.042 20.3617 12.0344 20.3582C12.0267 20.3617 12.0192 20.3654 12.0116 20.369L12.0115 20.3472C7.26917 18.1336 5.0605 14.4332 4.25239 12.7199C3.86443 12.0205 3.64277 11.2161 3.64277 10.3596C3.64277 7.66818 5.8246 5.48636 8.51603 5.48636C9.88849 5.48636 11.1277 6.05459 12.0133 6.96756C12.9017 6.02842 14.1585 5.44158 15.5533 5.44158C18.2448 5.44158 20.4266 7.62341 20.4266 10.3148C20.4266 10.8322 20.3453 11.3304 20.196 11.7983L20.1997 11.7978Z" fill="#2B2B3F"/>
</svg>
