<svg width="40" height="40" viewBox="0 0 40 40" fill="none" xmlns="http://www.w3.org/2000/svg">
<path d="M31.6666 6.66675H8.33331C7.00723 6.66675 5.73546 7.19353 4.79778 8.13121C3.8601 9.0689 3.33331 10.3407 3.33331 11.6667V28.3334C3.33331 29.6595 3.8601 30.9313 4.79778 31.8689C5.73546 32.8066 7.00723 33.3334 8.33331 33.3334H31.6666C32.9927 33.3334 34.2645 32.8066 35.2022 31.8689C36.1399 30.9313 36.6666 29.6595 36.6666 28.3334V11.6667C36.6666 10.3407 36.1399 9.0689 35.2022 8.13121C34.2645 7.19353 32.9927 6.66675 31.6666 6.66675V6.66675ZM30.55 10.0001L20 17.9167L9.44998 10.0001H30.55ZM31.6666 30.0001H8.33331C7.89129 30.0001 7.46736 29.8245 7.1548 29.5119C6.84224 29.1994 6.66665 28.7754 6.66665 28.3334V12.0834L19 21.3334C19.2885 21.5498 19.6394 21.6667 20 21.6667C20.3606 21.6667 20.7115 21.5498 21 21.3334L33.3333 12.0834V28.3334C33.3333 28.7754 33.1577 29.1994 32.8452 29.5119C32.5326 29.8245 32.1087 30.0001 31.6666 30.0001Z" fill="white"/>
</svg>
