<svg width="20" height="18" viewBox="0 0 20 18" fill="none" xmlns="http://www.w3.org/2000/svg">
<path d="M13.7326 2.67804C12.9725 2.67792 12.2428 2.97617 11.7005 3.50861C11.1581 4.04106 10.8465 4.76514 10.8326 5.52504L10.8046 7.10004C10.8029 7.18461 10.7834 7.26787 10.7473 7.34437C10.7113 7.42087 10.6594 7.48887 10.5952 7.54392C10.531 7.59898 10.4559 7.63983 10.3748 7.66381C10.2936 7.68778 10.2084 7.69434 10.1246 7.68304L8.56356 7.47104C6.5576 7.19759 4.63366 6.28893 2.78616 4.78138C2.72678 4.73293 2.63664 4.76652 2.62424 4.84214C2.09628 8.06086 3.272 10.3055 6.03656 12.044L7.78356 13.142C7.86657 13.1942 7.93553 13.2659 7.98441 13.3509C8.03329 13.4359 8.0606 13.5315 8.06396 13.6295C8.06731 13.7275 8.04661 13.8248 8.00365 13.9129C7.9607 14.0011 7.89681 14.0773 7.81756 14.135L6.44915 15.1347C6.37356 15.1899 6.40857 15.3085 6.5021 15.3125C7.34704 15.3478 8.14456 15.3006 8.81756 15.167C13.5356 14.225 16.6726 10.675 16.6726 4.81904C16.6726 4.34104 15.6606 2.67804 13.7326 2.67804ZM8.83256 5.48804C8.85002 4.52409 9.15145 3.58671 9.69912 2.79327C10.2468 1.99982 11.0164 1.38556 11.9115 1.02741C12.8066 0.669258 13.7875 0.583124 14.7313 0.779791C15.6751 0.976459 16.54 1.44719 17.2176 2.13304C17.8546 2.12856 18.4065 2.27259 19.4876 1.71284C19.6425 1.63264 19.8299 1.76542 19.7941 1.93614C19.5148 3.26734 19.318 3.93411 18.6726 4.81904C18.6726 12.461 13.9756 16.177 9.20956 17.128C6.25834 17.7168 2.09686 16.9005 0.314744 15.6894C0.105363 15.5471 0.205519 15.2533 0.456688 15.2216C1.58252 15.0798 3.66143 14.6959 4.97156 13.737C3.61712 12.8442 -1.70228 9.71233 1.52647 1.37274C1.60724 1.16412 1.88298 1.11481 2.03208 1.28159C3.62084 3.05878 5.23061 4.2822 6.86056 4.95104C8.01856 5.42604 8.30256 5.41604 8.83356 5.48904L8.83256 5.48804Z" fill="#2176E4"/>
</svg>
