<svg width="24" height="24" viewBox="0 0 24 24" fill="none" xmlns="http://www.w3.org/2000/svg">
<g clip-path="url(#clip0_108_158)">
<path d="M21.1628 0H2.83721C1.27026 0 0 1.27026 0 2.83721V21.1628C0 22.7297 1.27026 24 2.83721 24H21.1628C22.7297 24 24 22.7297 24 21.1628V2.83721C24 1.27026 22.7297 0 21.1628 0Z" fill="#3396CD"/>
<path d="M17.9144 4.88373C18.4307 5.73489 18.6623 6.61256 18.6623 7.72094C18.6623 11.2558 15.6451 15.8465 13.1963 19.0698H7.60465L5.36279 5.65815L10.2605 5.19303L11.4512 14.7358C12.5581 12.9302 13.927 10.093 13.927 8.16001C13.927 7.10094 13.7456 6.38094 13.4619 5.78791L17.9144 4.88373Z" fill="white"/>
</g>
<defs>
<clipPath id="clip0_108_158">
<rect width="24" height="24" fill="white"/>
</clipPath>
</defs>
</svg>
